<svg xmlns="http://www.w3.org/2000/svg" viewBox="0 0 1304.40 255.00" width="1304" height="255" role="img" aria-label="codeing">
<defs><linearGradient id="tg" x1="0" y1="0" x2="1" y2="0.35"><stop offset="0" stop-color="#2dd4bf"/><stop offset="0.55" stop-color="#22d3ee"/><stop offset="1" stop-color="#38bdf8"/></linearGradient></defs>
<g transform="translate(14.00,119.00)">
  <g fill="none" stroke="url(#tg)" stroke-width="32.0" stroke-linecap="round" stroke-linejoin="round">
    <polyline points="66.0,-80.0 6.0,0.0 66.0,80.0" />
    <polyline points="126.0,-80.0 186.0,0.0 126.0,80.0" />
  </g>
  <line x1="76.0" y1="92.0" x2="116.0" y2="-92.0" stroke="#ffffff" stroke-width="30.0" stroke-linecap="round" />
  <g transform="translate(280.00,66.00)">
    <path d="M73.92 -135.84Q99.11999999999999 -135.84 116.03999999999999 -122.64Q132.96 -109.44 138.24 -85.44H94.56Q89.03999999999999 -100.8 73.2 -100.8Q61.919999999999995 -100.8 55.199999999999996 -92.03999999999999Q48.48 -83.28 48.48 -66.96Q48.48 -50.64 55.199999999999996 -41.879999999999995Q61.919999999999995 -33.12 73.2 -33.12Q89.03999999999999 -33.12 94.56 -48.48H138.24Q132.96 -24.96 115.92 -11.52Q98.88 1.92 73.92 1.92Q54.239999999999995 1.92 39.0 -6.4799999999999995Q23.759999999999998 -14.879999999999999 15.239999999999998 -30.479999999999997Q6.72 -46.08 6.72 -66.96Q6.72 -87.84 15.239999999999998 -103.44Q23.759999999999998 -119.03999999999999 39.0 -127.44Q54.239999999999995 -135.84 73.92 -135.84Z M151.92 -66.96Q151.92 -87.6 161.04 -103.32Q170.16 -119.03999999999999 186.0 -127.44Q201.83999999999997 -135.84 221.51999999999998 -135.84Q241.2 -135.84 257.03999999999996 -127.44Q272.88 -119.03999999999999 282.0 -103.32Q291.12 -87.6 291.12 -66.96Q291.12 -46.32 281.88 -30.6Q272.64 -14.879999999999999 256.67999999999995 -6.4799999999999995Q240.71999999999997 1.92 221.04 1.92Q201.35999999999999 1.92 185.64 -6.4799999999999995Q169.92 -14.879999999999999 160.92 -30.479999999999997Q151.92 -46.08 151.92 -66.96ZM249.35999999999999 -66.96Q249.35999999999999 -83.03999999999999 241.32 -91.67999999999999Q233.27999999999997 -100.32 221.51999999999998 -100.32Q209.51999999999998 -100.32 201.59999999999997 -91.8Q193.67999999999998 -83.28 193.67999999999998 -66.96Q193.67999999999998 -50.879999999999995 201.47999999999996 -42.239999999999995Q209.27999999999997 -33.6 221.04 -33.6Q232.79999999999998 -33.6 241.07999999999998 -42.239999999999995Q249.35999999999999 -50.879999999999995 249.35999999999999 -66.96Z M363.84 -135.84Q377.03999999999996 -135.84 387.96 -130.32Q398.88 -124.8 405.12 -115.44V-177.6H446.15999999999997V0.0H405.12V-19.2Q399.36 -9.6 388.68 -3.84Q378.0 1.92 363.84 1.92Q347.28 1.92 333.84 -6.6Q320.4 -15.12 312.6 -30.839999999999996Q304.8 -46.559999999999995 304.8 -67.2Q304.8 -87.84 312.6 -103.44Q320.4 -119.03999999999999 333.84 -127.44Q347.28 -135.84 363.84 -135.84ZM375.84 -100.08Q363.59999999999997 -100.08 355.08 -91.32Q346.56 -82.56 346.56 -67.2Q346.56 -51.839999999999996 355.08 -42.839999999999996Q363.59999999999997 -33.839999999999996 375.84 -33.839999999999996Q388.08 -33.839999999999996 396.6 -42.72Q405.12 -51.6 405.12 -66.96Q405.12 -82.32 396.6 -91.19999999999999Q388.08 -100.08 375.84 -100.08Z M601.4399999999999 -57.12H508.55999999999995Q509.52 -44.64 516.5999999999999 -38.04Q523.68 -31.439999999999998 534.0 -31.439999999999998Q549.3599999999999 -31.439999999999998 555.3599999999999 -44.4H599.04Q595.68 -31.2 586.92 -20.64Q578.16 -10.08 564.96 -4.08Q551.76 1.92 535.4399999999999 1.92Q515.76 1.92 500.4 -6.4799999999999995Q485.03999999999996 -14.879999999999999 476.4 -30.479999999999997Q467.76 -46.08 467.76 -66.96Q467.76 -87.84 476.28 -103.44Q484.79999999999995 -119.03999999999999 500.15999999999997 -127.44Q515.52 -135.84 535.4399999999999 -135.84Q554.88 -135.84 570.0 -127.68Q585.12 -119.52 593.64 -104.4Q602.16 -89.28 602.16 -69.12Q602.16 -63.36 601.4399999999999 -57.12ZM560.16 -79.92Q560.16 -90.47999999999999 552.96 -96.72Q545.76 -102.96 534.9599999999999 -102.96Q524.64 -102.96 517.56 -96.96Q510.47999999999996 -90.96 508.79999999999995 -79.92Z" fill="#ffffff"/>
    <path d="M619.92 -169.92Q619.92 -179.51999999999998 626.76 -185.88Q633.6 -192.23999999999998 644.4 -192.23999999999998Q654.96 -192.23999999999998 661.8 -185.88Q668.64 -179.51999999999998 668.64 -169.92Q668.64 -160.56 661.8 -154.2Q654.96 -147.84 644.4 -147.84Q633.6 -147.84 626.76 -154.2Q619.92 -160.56 619.92 -169.92ZM664.8 -133.92V0.0H623.76V-133.92Z M827.76 -78.24V0.0H786.9599999999999V-72.72Q786.9599999999999 -86.16 780.0 -93.6Q773.04 -101.03999999999999 761.28 -101.03999999999999Q749.52 -101.03999999999999 742.56 -93.6Q735.5999999999999 -86.16 735.5999999999999 -72.72V0.0H694.56V-133.92H735.5999999999999V-116.16Q741.8399999999999 -125.03999999999999 752.3999999999999 -130.2Q762.9599999999999 -135.35999999999999 776.16 -135.35999999999999Q799.68 -135.35999999999999 813.72 -120.11999999999999Q827.76 -104.88 827.76 -78.24Z M948.4799999999999 -114.96V-133.92H989.52V-0.24Q989.52 18.24 982.1999999999999 33.239999999999995Q974.8799999999999 48.239999999999995 959.8799999999999 57.12Q944.8799999999999 66.0 922.56 66.0Q892.8 66.0 874.3199999999999 51.96Q855.8399999999999 37.92 853.1999999999999 13.92H893.76Q895.68 21.599999999999998 902.8799999999999 26.04Q910.0799999999999 30.48 920.64 30.48Q933.3599999999999 30.48 940.9199999999998 23.16Q948.4799999999999 15.84 948.4799999999999 -0.24V-19.2Q942.4799999999999 -9.84 931.9199999999998 -3.96Q921.3599999999999 1.92 907.1999999999999 1.92Q890.64 1.92 877.2 -6.6Q863.76 -15.12 855.96 -30.839999999999996Q848.16 -46.559999999999995 848.16 -67.2Q848.16 -87.84 855.96 -103.44Q863.76 -119.03999999999999 877.2 -127.44Q890.64 -135.84 907.1999999999999 -135.84Q921.3599999999999 -135.84 932.04 -130.07999999999998Q942.7199999999999 -124.32 948.4799999999999 -114.96ZM919.1999999999999 -100.08Q906.9599999999999 -100.08 898.4399999999999 -91.32Q889.92 -82.56 889.92 -67.2Q889.92 -51.839999999999996 898.4399999999999 -42.839999999999996Q906.9599999999999 -33.839999999999996 919.1999999999999 -33.839999999999996Q931.4399999999999 -33.839999999999996 939.9599999999999 -42.72Q948.4799999999999 -51.6 948.4799999999999 -66.96Q948.4799999999999 -82.32 939.9599999999999 -91.19999999999999Q931.4399999999999 -100.08 919.1999999999999 -100.08Z" fill="url(#tg)"/>
  </g>
</g>
</svg>